<svg width="20" height="20" viewBox="0 0 20 20" fill="none" xmlns="http://www.w3.org/2000/svg">
<path d="M3.97986 1H1V3.97986" stroke="#444444" stroke-width="1.5" stroke-linecap="round" stroke-linejoin="round"/>
<path d="M15.8994 1H18.8793V3.97986" stroke="#444444" stroke-width="1.5" stroke-linecap="round" stroke-linejoin="round"/>
<path d="M3.97986 18.8793H1V15.8994" stroke="#444444" stroke-width="1.5" stroke-linecap="round" stroke-linejoin="round"/>
<path d="M4.97314 15.8992V14.9059C4.97314 12.163 7.1967 9.93945 9.93958 9.93945C12.6824 9.93945 14.906 12.163 14.906 14.9059V15.8992" stroke="#444444" stroke-width="1.5" stroke-linecap="round" stroke-linejoin="round"/>
<path d="M9.93958 9.9397C11.5854 9.9397 12.9194 8.60562 12.9194 6.95984C12.9194 5.31411 11.5854 3.97998 9.93958 3.97998C8.2938 3.97998 6.95972 5.31411 6.95972 6.95984C6.95972 8.60562 8.2938 9.9397 9.93958 9.9397Z" stroke="#444444" stroke-width="1.5" stroke-linecap="round" stroke-linejoin="round"/>
<path d="M15.8994 18.8793H18.8793V15.8994" stroke="#444444" stroke-width="1.5" stroke-linecap="round" stroke-linejoin="round"/>
</svg>
