<svg width="20" height="20" viewBox="0 0 20 20" fill="none" xmlns="http://www.w3.org/2000/svg">
<path d="M18.9998 4.81156V18.3645C18.9998 18.7154 18.7154 18.9998 18.3645 18.9998H4.81156C4.4607 18.9998 4.17627 18.7154 4.17627 18.3645V4.81156C4.17627 4.4607 4.4607 4.17627 4.81156 4.17627H18.3645C18.7154 4.17627 18.9998 4.4607 18.9998 4.81156Z" stroke="#444444" stroke-width="1.5" stroke-linecap="round" stroke-linejoin="round"/>
<path d="M15.8235 1H1.63529C1.28443 1 1 1.28443 1 1.63529V15.8235" stroke="#444444" stroke-width="1.5" stroke-linecap="round" stroke-linejoin="round"/>
<path d="M10.4329 8.98896C10.0094 8.73495 9.4707 9.03989 9.4707 9.53372V13.6426C9.4707 14.1364 10.0094 14.4414 10.4329 14.1874L13.8569 12.1329C14.2681 11.8862 14.2681 11.2901 13.8569 11.0434L10.4329 8.98896Z" stroke="#444444" stroke-width="1.5" stroke-linecap="round" stroke-linejoin="round"/>
</svg>
