<svg width="20" height="20" viewBox="0 0 20 20" fill="none" xmlns="http://www.w3.org/2000/svg">
<path d="M19 4.81156V18.3645C19 18.7154 18.7156 18.9998 18.3648 18.9998H4.81181C4.46095 18.9998 4.17651 18.7154 4.17651 18.3645V4.81156C4.17651 4.4607 4.46095 4.17627 4.81181 4.17627H18.3648C18.7156 4.17627 19 4.4607 19 4.81156Z" stroke="#444444" stroke-width="1.5" stroke-linecap="round" stroke-linejoin="round"/>
<path d="M15.8235 1H1.63529C1.28443 1 1 1.28443 1 1.63529V15.8235" stroke="#444444" stroke-width="1.5" stroke-linecap="round" stroke-linejoin="round"/>
<path d="M4.17651 14.5529L9.94117 12.647L19 15.8234" stroke="#444444" stroke-width="1.5" stroke-linecap="round" stroke-linejoin="round"/>
<path d="M14.2352 10.5295C13.3581 10.5295 12.647 9.81839 12.647 8.94126C12.647 8.06413 13.3581 7.35303 14.2352 7.35303C15.1123 7.35303 15.8234 8.06413 15.8234 8.94126C15.8234 9.81839 15.1123 10.5295 14.2352 10.5295Z" stroke="#444444" stroke-width="1.5" stroke-linecap="round" stroke-linejoin="round"/>
</svg>
