<svg width="21" height="21" viewBox="0 0 21 21" fill="none" xmlns="http://www.w3.org/2000/svg">
<path d="M7.29325 4.77579V6.6637C7.29325 7.01126 7.0115 7.29301 6.66395 7.29301H4.77603C4.42848 7.29301 4.14673 7.01126 4.14673 6.6637V4.77579C4.14673 4.42823 4.42848 4.14648 4.77603 4.14648H6.66395C7.0115 4.14648 7.29325 4.42823 7.29325 4.77579Z" stroke="#444444" stroke-width="1.5" stroke-linecap="round" stroke-linejoin="round"/>
<path d="M4.14673 10.4395H7.29325" stroke="#444444" stroke-width="1.5" stroke-linecap="round" stroke-linejoin="round"/>
<path d="M13.5859 10.4395V13.586" stroke="#444444" stroke-width="1.5" stroke-linecap="round" stroke-linejoin="round"/>
<path d="M10.4395 16.7324H13.586" stroke="#444444" stroke-width="1.5" stroke-linecap="round" stroke-linejoin="round"/>
<path d="M10.4395 10.4518L10.4506 10.4395" stroke="#444444" stroke-width="1.5" stroke-linecap="round" stroke-linejoin="round"/>
<path d="M16.7327 10.4518L16.7438 10.4395" stroke="#444444" stroke-width="1.5" stroke-linecap="round" stroke-linejoin="round"/>
<path d="M10.4395 13.5983L10.4506 13.5859" stroke="#444444" stroke-width="1.5" stroke-linecap="round" stroke-linejoin="round"/>
<path d="M16.7327 13.5983L16.7438 13.5859" stroke="#444444" stroke-width="1.5" stroke-linecap="round" stroke-linejoin="round"/>
<path d="M16.7327 16.7448L16.7438 16.7324" stroke="#444444" stroke-width="1.5" stroke-linecap="round" stroke-linejoin="round"/>
<path d="M10.4395 7.30531L10.4506 7.29297" stroke="#444444" stroke-width="1.5" stroke-linecap="round" stroke-linejoin="round"/>
<path d="M10.4395 4.15883L10.4506 4.14648" stroke="#444444" stroke-width="1.5" stroke-linecap="round" stroke-linejoin="round"/>
<path d="M7.29325 14.2152V16.1032C7.29325 16.4507 7.0115 16.7325 6.66395 16.7325H4.77603C4.42848 16.7325 4.14673 16.4507 4.14673 16.1032V14.2152C4.14673 13.8677 4.42848 13.5859 4.77603 13.5859H6.66395C7.0115 13.5859 7.29325 13.8677 7.29325 14.2152Z" stroke="#444444" stroke-width="1.5" stroke-linecap="round" stroke-linejoin="round"/>
<path d="M16.7325 4.77579V6.6637C16.7325 7.01126 16.4507 7.29301 16.1032 7.29301H14.2152C13.8677 7.29301 13.5859 7.01126 13.5859 6.6637V4.77579C13.5859 4.42823 13.8677 4.14648 14.2152 4.14648H16.1032C16.4507 4.14648 16.7325 4.42823 16.7325 4.77579Z" stroke="#444444" stroke-width="1.5" stroke-linecap="round" stroke-linejoin="round"/>
<path d="M16.7327 1H19.8792V4.14652" stroke="#444444" stroke-width="1.5" stroke-linecap="round" stroke-linejoin="round"/>
<path d="M16.7327 19.8789H19.8792V16.7324" stroke="#444444" stroke-width="1.5" stroke-linecap="round" stroke-linejoin="round"/>
<path d="M4.14652 1H1V4.14652" stroke="#444444" stroke-width="1.5" stroke-linecap="round" stroke-linejoin="round"/>
<path d="M4.14652 19.8789H1V16.7324" stroke="#444444" stroke-width="1.5" stroke-linecap="round" stroke-linejoin="round"/>
</svg>
