<svg width="19" height="22" viewBox="0 0 19 22" fill="none" xmlns="http://www.w3.org/2000/svg">
<path d="M16.927 10.9543V4.73142C16.927 4.57301 16.864 4.4211 16.7521 4.30908L13.6178 1.17494C13.5058 1.06292 13.3539 1 13.1956 1H1.59726C1.2674 1 1 1.2674 1 1.59726V20.3114C1 20.6413 1.2674 20.9087 1.59726 20.9087H7.96804" stroke="#444444" stroke-width="1.5" stroke-linecap="round" stroke-linejoin="round"/>
<path d="M4.98169 8.96367H12.9452M4.98169 4.98193H8.96343M4.98169 12.9454H7.96799" stroke="#444444" stroke-width="1.5" stroke-linecap="round" stroke-linejoin="round"/>
<path d="M14.8905 15.8712L15.8859 14.8758C16.3218 14.4399 17.0286 14.4399 17.4645 14.8758C17.9004 15.3117 17.9004 16.0184 17.4645 16.4543L16.4691 17.4497M14.8905 15.8712L11.9131 18.8486C11.7638 18.9978 11.6659 19.1907 11.6334 19.3991L11.3918 20.9484L12.941 20.7069C13.1496 20.6744 13.3423 20.5764 13.4915 20.4272L16.4691 17.4497M14.8905 15.8712L16.4691 17.4497" stroke="#444444" stroke-width="1.5" stroke-linecap="round" stroke-linejoin="round"/>
<path d="M12.9453 1V4.38448C12.9453 4.71434 13.2127 4.98174 13.5426 4.98174H16.9271" stroke="#444444" stroke-width="1.5" stroke-linecap="round" stroke-linejoin="round"/>
</svg>
